nColumns=28
nRows=60
DataType=double
version=3
OpenSimVersion=4.1
endheader
time	ground_force_1_vx	ground_force_1_vy	ground_force_1_vz	ground_force_1_px	ground_force_1_py	ground_force_1_pz	ground_force_1_mx	ground_force_1_my	ground_force_1_mz	ground_force_2_vx	ground_force_2_vy	ground_force_2_vz	ground_force_2_px	ground_force_2_py	ground_force_2_pz	ground_force_2_mx	ground_force_2_my	ground_force_2_mz	ground_force_3_vx	ground_force_3_vy	ground_force_3_vz	ground_force_3_px	ground_force_3_py	ground_force_3_pz	ground_force_3_mx	ground_force_3_my	ground_force_3_mz
0	-3.94833	290.924	-37.2322	-0.198092	0.006	-0.372941	0	-1.74598	0	-0.763873	313.716	37.6785	-0.181158	0.006	-0.768721	0	0.672274	0	0	0	0	0	0	0	0	0	0
0.01	-3.7526	292.039	-37.3373	-0.198429	0.006	-0.373103	0	-1.75271	0	-0.592721	314.006	37.6891	-0.181484	0.006	-0.768818	0	0.668405	0	0	0	0	0	0	0	0	0	0
0.02	-3.51772	293.258	-37.4477	-0.198857	0.006	-0.373289	0	-1.76037	0	-0.383964	314.245	37.6952	-0.181884	0.006	-0.768901	0	0.669086	0	0	0	0	0	0	0	0	0	0
0.03	-3.24094	294.537	-37.5558	-0.199382	0.006	-0.3735	0	-1.76835	0	-0.134439	314.397	37.6922	-0.182364	0.006	-0.768966	0	0.674834	0	0	0	0	0	0	0	0	0	0
0.04	-2.91976	295.819	-37.6512	-0.200006	0.006	-0.373735	0	-1.7757	0	0.159009	314.412	37.6734	-0.182923	0.006	-0.769008	0	0.685614	0	0	0	0	0	0	0	0	0	0
0.05	-2.55199	297.033	-37.7228	-0.200731	0.006	-0.373998	0	-1.78105	0	0.499578	314.23	37.6295	-0.183563	0.006	-0.769024	0	0.700906	0	0	0	0	0	0	0	0	0	0
0.06	-2.13551	298.102	-37.7592	-0.201561	0.006	-0.374292	0	-1.78279	0	0.890391	313.776	37.5491	-0.18428	0.006	-0.769008	0	0.719896	0	0	0	0	0	0	0	0	0	0
0.07	-1.66887	298.943	-37.7507	-0.202494	0.006	-0.374618	0	-1.77908	0	1.33357	312.965	37.4197	-0.185072	0.006	-0.768957	0	0.741433	0	0	0	0	0	0	0	0	0	0
0.08	-1.15163	299.464	-37.6888	-0.20353	0.006	-0.374976	0	-1.76807	0	1.82924	311.705	37.228	-0.185936	0.006	-0.768867	0	0.764114	0	0	0	0	0	0	0	0	0	0
0.09	-0.585114	299.568	-37.5669	-0.20467	0.006	-0.375367	0	-1.74807	0	2.37441	309.902	36.9606	-0.186867	0.006	-0.768731	0	0.78637	0	0	0	0	0	0	0	0	0	0
0.1	0.0261615	299.154	-37.3801	-0.20591	0.006	-0.375792	0	-1.71767	0	2.96166	307.462	36.6044	-0.187863	0.006	-0.768545	0	0.806444	0	0	0	0	0	0	0	0	0	0
0.11	0.673429	298.133	-37.1248	-0.207249	0.006	-0.376252	0	-1.67589	0	3.57779	304.3	36.1471	-0.188921	0.006	-0.768301	0	0.822415	0	0	0	0	0	0	0	0	0	0
0.12	1.34235	296.422	-36.7979	-0.208683	0.006	-0.376748	0	-1.62236	0	4.20269	300.338	35.5777	-0.190039	0.006	-0.767992	0	0.832301	0	0	0	0	0	0	0	0	0	0
0.13	2.01265	293.954	-36.3969	-0.210207	0.006	-0.377284	0	-1.55727	0	4.8086	295.512	34.8877	-0.191212	0.006	-0.767614	0	0.834052	0	0	0	0	0	0	0	0	0	0
0.14	2.65802	290.68	-35.9204	-0.211814	0.006	-0.377864	0	-1.48122	0	5.36004	289.777	34.072	-0.192433	0.006	-0.767158	0	0.82549	0	0	0	0	0	0	0	0	0	0
0.15	3.24698	286.587	-35.3708	-0.213496	0.006	-0.378489	0	-1.39505	0	5.81588	283.121	33.1305	-0.193691	0.006	-0.766618	0	0.804245	0	0	0	0	0	0	0	0	0	0
0.16	3.7451	281.707	-34.7561	-0.215244	0.006	-0.379165	0	-1.29973	0	6.13436	275.581	32.0697	-0.194975	0.006	-0.765985	0	0.768122	0	0	0	0	0	0	0	0	0	0
0.17	4.11819	276.127	-34.0907	-0.217047	0.006	-0.379894	0	-1.19628	0	6.27817	267.253	30.9026	-0.196275	0.006	-0.765252	0	0.715586	0	0	0	0	0	0	0	0	0	0
0.18	4.33723	269.988	-33.3962	-0.218893	0.006	-0.380677	0	-1.08583	0	6.2194	258.3	29.6501	-0.197585	0.006	-0.764413	0	0.645983	0	0	0	0	0	0	0	0	0	0
0.19	4.38358	263.478	-32.6991	-0.220773	0.006	-0.381516	0	-0.969682	0	5.94466	248.954	28.3419	-0.198901	0.006	-0.763466	0	0.559597	0	0	0	0	0	0	0	0	0	0
0.2	4.25191	256.821	-32.0287	-0.222678	0.006	-0.382409	0	-0.84925	0	5.45661	239.506	27.0151	-0.200225	0.006	-0.762414	0	0.457617	0	0	0	0	0	0	0	0	0	0
0.21	3.94957	250.26	-31.4133	-0.2246	0.006	-0.383351	0	-0.726127	0	4.77202	230.287	25.7138	-0.201556	0.006	-0.76127	0	0.342074	0	0	0	0	0	0	0	0	0	0
0.22	3.49347	244.047	-30.8784	-0.226528	0.006	-0.384334	0	-0.602015	0	3.91741	221.655	24.4884	-0.202891	0.006	-0.760059	0	0.215694	0	0	0	0	0	0	0	0	0	0
0.23	2.90716	238.43	-30.444	-0.228447	0.006	-0.385346	0	-0.478521	0	2.92641	213.972	23.3918	-0.204221	0.006	-0.758823	0	0.081796	0	0	0	0	0	0	0	0	0	0
0.24	2.21931	233.642	-30.1246	-0.230336	0.006	-0.38637	0	-0.357129	0	1.84046	207.58	22.4728	-0.205532	0.006	-0.757619	0	-0.055578	0	0	0	0	0	0	0	0	0	0
0.25	1.45956	229.886	-29.9274	-0.232165	0.006	-0.387385	0	-0.239139	0	0.709283	202.765	21.7709	-0.206805	0.006	-0.756509	0	-0.19158	0	0	0	0	0	0	0	0	0	0
0.26	0.656499	227.313	-29.8525	-0.233901	0.006	-0.388369	0	-0.125518	0	-0.412043	199.719	21.3117	-0.208017	0.006	-0.755554	0	-0.320611	0	0	0	0	0	0	0	0	0	0
0.27	-0.159088	226.012	-29.892	-0.235516	0.006	-0.389302	0	-0.016979	0	-1.4682	198.509	21.1052	-0.209146	0.006	-0.754804	0	-0.436522	0	0	0	0	0	0	0	0	0	0
0.28	-0.948914	225.988	-30.0305	-0.236996	0.006	-0.390168	0	0.085795	0	-2.40831	199.068	21.1438	-0.210177	0.006	-0.754283	0	-0.533107	0	0	0	0	0	0	0	0	0	0
0.29	-1.66446	227.15	-30.2437	-0.238343	0.006	-0.39096	0	0.181999	0	-3.18776	201.18	21.4019	-0.211103	0.006	-0.753988	0	-0.604628	0	0	0	0	0	0	0	0	0	0
0.3	-2.24757	229.299	-30.4974	-0.239575	0.006	-0.391678	0	0.270575	0	-3.76756	204.502	21.8375	-0.211926	0.006	-0.753895	0	-0.646013	0	0	0	0	0	0	0	0	0	0
0.31	-2.63498	232.129	-30.7466	-0.240721	0.006	-0.39233	0	0.350125	0	-4.11739	208.6	22.3993	-0.212651	0.006	-0.753962	0	-0.653305	0	0	0	0	0	0	0	0	0	0
0.32	-2.76902	235.241	-30.9405	-0.241811	0.006	-0.392927	0	0.419013	0	-4.22366	213.019	23.0374	-0.213283	0.006	-0.754147	0	-0.6244	0	0	0	0	0	0	0	0	0	0
0.33	-2.61069	238.19	-31.0301	-0.242873	0.006	-0.393484	0	0.475607	0	-4.09272	217.354	23.7115	-0.213815	0.006	-0.754418	0	-0.55929	0	0	0	0	0	0	0	0	0	0
0.34	-2.15029	240.558	-30.9757	-0.243924	0.006	-0.394013	0	0.518492	0	-3.74581	221.298	24.3947	-0.214234	0.006	-0.754756	0	-0.459678	0	0	0	0	0	0	0	0	0	0
0.35	-1.40808	242.023	-30.7532	-0.244965	0.006	-0.394523	0	0.54667	0	-3.20938	224.669	25.0748	-0.214524	0.006	-0.755155	0	-0.328521	0	0	0	0	0	0	0	0	0	0
0.36	-0.42313	242.407	-30.3592	-0.24599	0.006	-0.395014	0	0.559376	0	-2.50881	227.424	25.754	-0.21467	0.006	-0.755619	0	-0.169489	0	0	0	0	0	0	0	0	0	0
0.37	0.758411	241.711	-29.8155	-0.246981	0.006	-0.39548	0	0.555873	0	-1.66911	229.641	26.4481	-0.214655	0.006	-0.75616	0	0.013369	0	0	0	0	0	0	0	0	0	0
0.38	2.09019	240.114	-29.1699	-0.247913	0.006	-0.395904	0	0.535373	0	-0.719738	231.5	27.1835	-0.214464	0.006	-0.756791	0	0.215719	0	0	0	0	0	0	0	0	0	0
0.39	3.52945	237.948	-28.4926	-0.248755	0.006	-0.396262	0	0.497178	0	0.301658	233.226	27.9904	-0.214082	0.006	-0.757526	0	0.432927	0	0	0	0	0	0	0	0	0	0
0.4	5.04109	235.623	-27.8678	-0.249475	0.006	-0.396522	0	0.44085	0	1.34988	235.039	28.8939	-0.213503	0.006	-0.758369	0	0.6603	0	0	0	0	0	0	0	0	0	0
0.41	6.60217	233.548	-27.3819	-0.250041	0.006	-0.396651	0	0.366164	0	2.37657	237.102	29.9063	-0.212721	0.006	-0.759319	0	0.893493	0	0	0	0	0	0	0	0	0	0
0.42	8.2004	232.076	-27.1132	-0.250421	0.006	-0.396619	0	0.273092	0	3.3317	239.51	31.0271	-0.211741	0.006	-0.760364	0	1.12878	0	0	0	0	0	0	0	0	0	0
0.43	9.82449	231.482	-27.1258	-0.250589	0.006	-0.396403	0	0.162041	0	4.16545	242.307	32.2472	-0.210568	0.006	-0.761485	0	1.36324	0	0	0	0	0	0	0	0	0	0
0.44	11.4541	231.956	-27.4629	-0.250519	0.006	-0.39599	0	0.034286	0	4.83477	245.514	33.552	-0.209211	0.006	-0.762664	0	1.5948	0	0	0	0	0	0	0	0	0	0
0.45	13.0584	233.595	-28.1405	-0.250193	0.006	-0.395383	0	-0.107942	0	5.31004	249.149	34.9246	-0.207684	0.006	-0.763882	0	1.82243	0	0	0	0	0	0	0	0	0	0
0.46	14.5988	236.401	-29.1463	-0.249603	0.006	-0.394596	0	-0.26175	0	5.5776	253.212	36.3449	-0.206	0.006	-0.765119	0	2.04592	0	0	0	0	0	0	0	0	0	0
0.47	16.0329	240.287	-30.4418	-0.248752	0.006	-0.393657	0	-0.423798	0	5.63756	257.68	37.7894	-0.204176	0.006	-0.766354	0	2.26558	0	0	0	0	0	0	0	0	0	0
0.48	17.3213	245.1	-31.9688	-0.247652	0.006	-0.392599	0	-0.590582	0	5.50148	262.506	39.2345	-0.202228	0.006	-0.767568	0	2.48185	0	0	0	0	0	0	0	0	0	0
0.49	18.4354	250.663	-33.66	-0.246322	0.006	-0.391455	0	-0.758857	0	5.19179	267.629	40.6588	-0.200174	0.006	-0.768747	0	2.69514	0	0	0	0	0	0	0	0	0	0
0.5	19.3626	256.795	-35.4486	-0.244788	0.006	-0.390257	0	-0.925782	0	4.73916	272.983	42.0458	-0.198035	0.006	-0.769879	0	2.90564	0	0	0	0	0	0	0	0	0	0
0.51	20.1069	263.326	-37.2752	-0.243076	0.006	-0.389029	0	-1.08893	0	4.17554	278.499	43.385	-0.195832	0.006	-0.770957	0	3.11294	0	0	0	0	0	0	0	0	0	0
0.52	20.6862	270.079	-39.0912	-0.241216	0.006	-0.387789	0	-1.24612	0	3.5258	284.121	44.6717	-0.193581	0.006	-0.771978	0	3.31604	0	0	0	0	0	0	0	0	0	0
0.53	21.1234	276.89	-40.8646	-0.239235	0.006	-0.386548	0	-1.39515	0	2.80272	289.803	45.9067	-0.191299	0.006	-0.772942	0	3.51342	0	0	0	0	0	0	0	0	0	0
0.54	21.4394	283.618	-42.5814	-0.237156	0.006	-0.385314	0	-1.5338	0	2.00768	295.505	47.0928	-0.188999	0.006	-0.773847	0	3.70332	0	0	0	0	0	0	0	0	0	0
0.55	21.6511	290.157	-44.2421	-0.234996	0.006	-0.384087	0	-1.65983	0	1.13622	301.181	48.2301	-0.18669	0.006	-0.774696	0	3.88394	0	0	0	0	0	0	0	0	0	0
0.56	21.7742	296.447	-45.856	-0.232767	0.006	-0.382868	0	-1.77097	0	0.185985	306.777	49.3129	-0.184378	0.006	-0.775488	0	4.05371	0	0	0	0	0	0	0	0	0	0
0.57	21.8262	302.466	-47.4337	-0.230479	0.006	-0.381659	0	-1.86515	0	-0.838171	312.23	50.3292	-0.182069	0.006	-0.776225	0	4.2116	0	0	0	0	0	0	0	0	0	0
0.58	21.8263	308.218	-48.9795	-0.228144	0.006	-0.380464	0	-1.94085	0	-1.92534	317.48	51.2648	-0.179766	0.006	-0.776908	0	4.35729	0	0	0	0	0	0	0	0	0	0
0.59	21.793	313.714	-50.4873	-0.225774	0.006	-0.37929	0	-1.99742	0	-3.06265	322.472	52.1068	-0.177471	0.006	-0.77754	0	4.49095	0	0	0	0	0	0	0	0	0	0
